<svg width="24" height="24" viewBox="0 0 24 24" fill="none" xmlns="http://www.w3.org/2000/svg" class="ltr-4z3qvp e1svuwfo1" data-name="Flag" aria-hidden="true"><path fill-rule="evenodd" clip-rule="evenodd" d="M3 2C2.44772 2 2 2.44772 2 3V4V9.57143V22H4L4 10.5789C5.85067 10.608 7.2411 10.721 9 10.9127V13.5714C9 14.0183 9.2965 14.4109 9.72632 14.5332C13.0256 15.4721 15.8727 16 21 16C21.5523 16 22 15.5523 22 15V8.42857C22 7.87629 21.5523 7.42857 21 7.42857C18.6167 7.42857 17.0614 7.31194 15 7.08734V4.42857C15 3.98169 14.7035 3.58906 14.2737 3.46675C10.9744 2.52795 8.12734 2 3 2ZM4 8.57872C6.2574 8.613 7.85904 8.76736 10.1134 9.02478L11 9.12601V10.0183V12.8111C13.616 13.5166 16.0515 13.9337 20 13.9927V9.42128C17.7426 9.387 16.141 9.23264 13.8866 8.97522L13 8.87399V7.98168V5.18886C10.384 4.48336 7.94853 4.06629 4 4.00726V8.57872Z" fill="currentColor"></path></svg>