<svg width="24" height="24" viewBox="0 0 24 24" fill="none" xmlns="http://www.w3.org/2000/svg" class="ltr-4z3qvp e1svuwfo1" data-name="VolumeHigh" aria-hidden="true"><path fill-rule="evenodd" clip-rule="evenodd" d="


M11 3.99995C11 3.59549 10.7564 3.23085 10.3827 3.07607C10.009 2.92129 9.57889 3.00685 9.29289 3.29285L4.58579 7.99995H1C0.447715 7.99995 0 8.44767 0 8.99995V15C0 15.5522 0.447715 16 1 16H4.58579L9.29289 20.7071C9.57889 20.9931 10.009 21.0786 10.3827 20.9238C10.7564 20.7691 11 20.4044 11 20V3.99995Z

M5.70711 9.70706L9 6.41417V17.5857L5.70711 14.2928L5.41421 14H5H2V9.99995H5H5.41421L5.70711 9.70706Z

M16.0001 12C16.0001 10.4087 15.368 8.88254 14.2428 7.75732L12.8285 9.17154C13.5787 9.92168 14.0001 10.9391 14.0001 12
C14.0001 13.0608 13.5787 14.0782 12.8285 14.8284L14.2428 16.2426C15.368 15.1174 16.0001 13.5913 16.0001 12Z

" 

fill="currentColor"></path></svg>